<svg width="16" height="16" viewBox="0 0 16 16" fill="none" xmlns="http://www.w3.org/2000/svg">
<path opacity="0.4" d="M15.1045 14.1807H10.0429C9.54911 14.1807 9.14746 14.5887 9.14746 15.0903C9.14746 15.5929 9.54911 16 10.0429 16H15.1045C15.5984 16 16 15.5929 16 15.0903C16 14.5887 15.5984 14.1807 15.1045 14.1807Z" fill="white"/>
<path d="M6.49691 3.47011L11.2932 7.34575C11.4089 7.43843 11.4287 7.60852 11.3384 7.727L5.65221 15.1362C5.29477 15.5939 4.76801 15.8528 4.20363 15.8624L1.09952 15.9006C0.933967 15.9025 0.789109 15.7879 0.751483 15.6235L0.0460042 12.5563C-0.0762789 11.9925 0.0460042 11.4096 0.403447 10.9605L6.11783 3.51598C6.21001 3.39654 6.38027 3.37551 6.49691 3.47011Z" fill="white"/>
<path opacity="0.4" d="M13.4405 5.03595L12.5158 6.19023C12.4227 6.30776 12.2553 6.32687 12.1396 6.23323C11.0155 5.32356 8.13717 2.9892 7.33857 2.3423C7.22193 2.24675 7.20594 2.07666 7.30001 1.95818L8.19173 0.850718C9.00068 -0.190812 10.4116 -0.286365 11.5498 0.62139L12.8573 1.66292C13.3935 2.08335 13.7509 2.63756 13.8732 3.22044C14.0143 3.8616 13.8638 4.49129 13.4405 5.03595Z" fill="white"/>
</svg>
